<svg id="图层_1" data-name="图层 1" xmlns="http://www.w3.org/2000/svg" viewBox="0 0 3000 450.33"><defs><style>.cls-1{fill:#fff;}</style></defs><path d="M3000,260.71V450.33H1280.51c1.17-3.63,1.84-6.06,2.73-8.41Q1364.21,228,1445,14C1447.78,6.68,1450.83,4,1459,4q516,.35,1032,.22c3,0,6,.4,10.93.76-32,14.41-34.16,48.49-22.33,66.35,14.4,21.74,47.44,26.76,67.59,10.46,13.39-10.84,18.45-24.86,16.13-41.45C2561,24,2549.39,14,2534.91,4.17c21.05,0,39.72.61,58.33-.25,9.78-.45,13.78,3.13,17.48,11.92q52.13,123.81,168.79,191.51C2847.74,246.87,2921.73,262.52,3000,260.71ZM1690.19,367.21V355.8c0-36.42-.14-72.83.1-109.25a109.33,109.33,0,0,1,2.42-24.12c4.38-18.46,15-32.55,34.21-36.75,16.68-3.63,32.45-.83,44.13,13.86,9.22,11.59,10,25.29,10.13,38.9.38,39,.12,78,.17,117.06,0,3.9.37,7.81.57,11.66h76.24c.27-2.72.68-4.87.68-7,0-47.94.32-95.88-.19-143.81-.13-12-1.35-24.5-4.69-36-17.75-61-85.28-84.17-142.2-54.45-13.14,6.87-24.21,17.68-37.18,27.39-17.19-24.32-42-37.87-73-39.78-30.43-1.89-57.5,6.41-80.94,29.56-.4-9-.69-15.5-1-22.11h-77.1V367.19h77.54V355.74c0-34.19-.63-68.4.3-102.56a164.13,164.13,0,0,1,6.75-41.24c4.5-15.34,16.79-24.28,32.41-26.82,17.19-2.79,34,.67,42.7,16.78,5.69,10.51,8.48,23.68,8.81,35.76,1.07,39,.4,78,.41,117v12.5Zm392-.25H2160V121h-78v12.85c0,36.43.56,72.87-.32,109.28a105.42,105.42,0,0,1-7.08,34.24c-7.11,18.7-26.58,29.27-47.42,28-17.12-1.06-30.91-12.71-37-31.81a47.58,47.58,0,0,1-2.14-14.07c-.16-43.12,0-86.24-.34-129.35,0-3.3-3.38-9.38-5.31-9.43-24.07-.66-48.17-.43-72.88-.43v10.3c0,52-1,104.11.53,156.11.73,25.23,10.81,48.66,30.53,65.53,30.32,25.94,65.87,28.68,102.39,16.8,13.78-4.48,25.91-14,39.19-21.43Zm120.74-63.21a51,51,0,0,0,0,6.16,34.46,34.46,0,0,0,1.4,5.25c6.63,21.93,21.46,36.48,41.86,45.92,36.51,16.9,74.84,17.48,113.22,10,24.34-4.73,46.86-15.37,60.56-37.67,23.33-38,12.77-94-41.44-110.28-25.65-7.72-52.29-12.16-78.44-18.26-7.64-1.79-13.35-5.72-14.44-14.47-1.16-9.37,4-14.72,11.42-18.29a32.1,32.1,0,0,1,11.74-2.78c22.54-1.31,39.58,6.9,47.61,28.86l70.75-14.13c-6.68-27.26-23.29-45.31-47.4-57.28-26.09-13-54.15-15.64-82.34-12.79-27.7,2.8-53.07,12.31-72.47,34.18-24.84,28-24,80.25,8.53,102.31,18.41,12.46,38.87,17.06,59.8,21.34,15.15,3.1,30.48,5.52,45.45,9.3,7.77,2,15.86,5.62,16.27,15.6.4,9.6-5.7,15.37-14.15,17.44-22.17,5.44-52.14,5.44-63.68-25.69Zm507.93-115.86c-11.87-13.84-24-28.36-36.56-42.53-11.09-12.54-11.48-12.27-24.52-.85-31.27,27.41-47.29,61.18-46.3,103.29.75,32.5,11.35,60.54,33,84.52,42.27,46.88,119.67,55.88,173,24.25,29.67-17.58,48.69-42.77,56.08-77.15L2793.92,264c-14.89,38.73-36.9,44-58.47,43.07-29.19-1.23-50.15-19.23-54.72-47.33C2676.27,232.23,2680.21,204,2710.85,187.89Zm-154.7,179.46V121.15H2479v246.2Zm383.3-84.46c-25.33,0-44.6,18.74-44.68,43.41-.08,25.49,18.84,43.74,45.31,43.72,26.31,0,44.28-17.42,44.33-42.91C2984.46,301.07,2966,282.88,2939.45,282.89Z"/><path class="cls-1" d="M3000,260.71c-78.27,1.81-152.26-13.84-220.49-53.36q-116.67-67.57-168.79-191.51c-3.7-8.79-7.7-12.37-17.48-11.92-18.61.86-37.28.25-58.33.25C2549.39,14,2561,24,2563.26,40.31c2.32,16.59-2.74,30.61-16.13,41.45C2527,98.06,2493.94,93,2479.54,71.3c-11.83-17.86-9.65-51.94,22.33-66.35-4.93-.36-7.93-.76-10.93-.76q-516,0-1032-.22c-8.14,0-11.19,2.71-14,10.07q-80.58,214.05-161.77,427.88c-.89,2.35-1.56,4.78-2.73,8.41H3000c-.37.74-.71,2.1-1.13,2.13-3,.18-6,.1-8.94.1H0V0H3000V80c-9.15,2.65-18.27,5.42-27.47,7.91-23.23,6.28-36.84,1.3-48.35-19.84-9.66-17.75-18.11-36.21-26.07-54.79-2.92-6.81-5.85-9.35-13.51-9.32-82.06.32-164.13.19-246.19.22-2.75,0-5.49.39-11.23.82l37.14,68.78c28.09-10.46,53.4-20.73,79.28-29.28,26.25-8.67,53-16,79.66-23.22,22.11-5.94,35.25-1.06,43.54,19.37a672.33,672.33,0,0,1,27.4,81.41c6.23,23.62-.18,34.14-23,43.76-23.31,9.82-47.22,18.23-72.49,27.87a342.58,342.58,0,0,0,96.66,36.12c-1.39-4.59-2.1-7-2.87-9.47-8.59-27-5.46-37.36,19.33-50,28.9-14.71,58.75-27.6,88.19-41.28v62.46l-25.49-2.09c7.33,16.47,14,31.72,21,46.85.53,1.14,2.95,1.41,4.49,2.09ZM1408.89,4.81H407.42c29.47,21,30.31,39.58,24.24,58-6.19,18.8-24.62,29.3-46.74,28.35-17.74-.75-35-14-39.8-30.42-6.32-21.8,2.25-40.65,26.06-56H2V110.89q0,66.92,0,133.84c0,5.85-.36,10.72,7.92,11.69A339.55,339.55,0,0,1,45.74,263q176.49,40.38,293.44,178.19c5.46,6.42,10.9,9.4,19.72,9.39q347-.41,694.05-.21c1.87,0,4.09.65,5.53-.14,3.38-1.84,7.9-3.68,9.31-6.73,11.21-24.42,22.26-48.94,32.27-73.87,2.28-5.68,2.37-13.91,0-19.51C1070,278.9,1039.19,208,1008.63,137c-2.23-5.17-4.21-10.44-6.76-16.82,26.24,0,50.48.39,74.7-.23,7.88-.2,11,2.9,13.59,9.58,8.66,22.28,17.83,44.37,26.91,66.49s18.35,44.42,28.12,68.06c1.68-2.79,2.54-3.92,3.1-5.19,18.82-43.16,37.53-86.36,56.56-129.43,1.57-3.56,5.21-8.77,8-8.84,26.25-.68,52.53-.4,80.7-.4L1150.61,450.33c27.84,0,53.59-.45,79.31.24,8.75.23,12-3.13,14.88-10.71q69-183.1,138.51-366C1391.87,51.2,1400.13,28.47,1408.89,4.81ZM149.17,336.89c-12.2-9.47-27.36-12.47-44.52-5.33-7.4,3.07-15.72,3.86-23.51,6.07-9.32,2.63-13.85-1.79-16.47-10-3.74-11.73,5.46-14.85,16-20.2L2.29,289.66v41.47c2.85-.47,5.41-.72,7.9-1.32,5.72-1.39,11.55-2.55,17.08-4.52,9.4-3.35,16-1.22,19,8.66,2.9,9.59-.93,15.16-12.39,18.11-10.3,2.65-20.65,5.11-31.23,7.71V434C23.73,428.4,44,423.1,64.31,417.66c8.67-2.33,14.38.22,17.19,9,2.76,8.65.43,14.4-8.63,17-5.54,1.59-11,3.34-16.54,5,31.78,1.63,63.11,1.89,94.43,1.46a123.27,123.27,0,0,0,26.14-3.67c20.08-4.72,40-10.11,60-15.23,8-2.05,13.88-.35,16,8.63.82,3.44,2.21,6.74,3.13,9.48H301c-13.17-12.71-24.67-23.29-35.54-34.48-11.52-11.85-23.93-17.76-40.13-9.47-2.88,1.47-6.36,2-9.63,2.41-7.23.92-12.39-1.9-14.26-9.21s-1.34-14,7.28-17.12c2.74-1,5.5-1.89,8.55-2.94-17.32-18.06-27-20.92-49-14.79-4.25,1.18-8.41,2.72-12.71,3.65-11,2.38-18.95-2.16-18.24-12.83C137.66,348.75,144.59,343.34,149.17,336.89ZM2764.5,156.43l46.64-50.83-67.77-13.28C2750.79,114.85,2757.2,134.29,2764.5,156.43Z"/><path d="M3000,129.09c-29.44,13.68-59.29,26.57-88.19,41.28-24.79,12.62-27.92,23-19.33,50,.77,2.43,1.48,4.88,2.87,9.47a342.58,342.58,0,0,1-96.66-36.12c25.27-9.64,49.18-18,72.49-27.87,22.84-9.62,29.25-20.14,23-43.76a672.33,672.33,0,0,0-27.4-81.41c-8.29-20.43-21.43-25.31-43.54-19.37-26.7,7.18-53.41,14.55-79.66,23.22-25.88,8.55-51.19,18.82-79.28,29.28L2627.18,5c5.74-.43,8.48-.82,11.23-.82,82.06,0,164.13.1,246.19-.22,7.66,0,10.59,2.51,13.51,9.32,8,18.58,16.41,37,26.07,54.79,11.51,21.14,25.12,26.12,48.35,19.84,9.2-2.49,18.32-5.26,27.47-7.91Z"/><path d="M3000,238.4c-1.54-.68-4-1-4.49-2.09-7-15.13-13.67-30.38-21-46.85l25.49,2.09Z"/><path class="cls-1" d="M1690.19,367.21h-78.75v-12.5c0-39,.66-78.06-.41-117-.33-12.08-3.12-25.25-8.81-35.76-8.73-16.11-25.51-19.57-42.7-16.78-15.62,2.54-27.91,11.48-32.41,26.82a164.13,164.13,0,0,0-6.75,41.24c-.93,34.16-.3,68.37-.3,102.56v11.45h-77.54V121h77.1c.29,6.61.58,13.08,1,22.11,23.44-23.15,50.51-31.45,80.94-29.56,31,1.91,55.85,15.46,73,39.78,13-9.71,24-20.52,37.18-27.39,56.92-29.72,124.45-6.54,142.2,54.45,3.34,11.5,4.56,24,4.69,36,.51,47.93.22,95.87.19,143.81,0,2.14-.41,4.29-.68,7h-76.24c-.2-3.85-.57-7.76-.57-11.66,0-39,.21-78-.17-117.06-.14-13.61-.91-27.31-10.13-38.9-11.68-14.69-27.45-17.49-44.13-13.86-19.22,4.2-29.83,18.29-34.21,36.75a109.33,109.33,0,0,0-2.42,24.12c-.24,36.42-.1,72.83-.1,109.25Z"/><path class="cls-1" d="M2082.18,367V347.53c-13.28,7.44-25.41,17-39.19,21.43-36.52,11.88-72.07,9.14-102.39-16.8-19.72-16.87-29.8-40.3-30.53-65.53-1.5-52-.5-104.07-.53-156.11v-10.3c24.71,0,48.81-.23,72.88.43,1.93,0,5.29,6.13,5.31,9.43.36,43.11.18,86.23.34,129.35a47.58,47.58,0,0,0,2.14,14.07c6.07,19.1,19.86,30.75,37,31.81,20.84,1.29,40.31-9.28,47.42-28a105.42,105.42,0,0,0,7.08-34.24c.88-36.41.32-72.85.32-109.28V121h78V367Z"/><path class="cls-1" d="M2202.92,303.75l74.3-15.26c11.54,31.13,41.51,31.13,63.68,25.69,8.45-2.07,14.55-7.84,14.15-17.44-.41-10-8.5-13.64-16.27-15.6-15-3.78-30.3-6.2-45.45-9.3-20.93-4.28-41.39-8.88-59.8-21.34-32.56-22.06-33.37-74.32-8.53-102.31,19.4-21.87,44.77-31.38,72.47-34.18,28.19-2.85,56.25-.17,82.34,12.79,24.11,12,40.72,30,47.4,57.28l-70.75,14.13c-8-22-25.07-30.17-47.61-28.86a32.1,32.1,0,0,0-11.74,2.78c-7.46,3.57-12.58,8.92-11.42,18.29,1.09,8.75,6.8,12.68,14.44,14.47,26.15,6.1,52.79,10.54,78.44,18.26,54.21,16.32,64.77,72.3,41.44,110.28-13.7,22.3-36.22,32.94-60.56,37.67-38.38,7.46-76.71,6.88-113.22-10-20.4-9.44-35.23-24-41.86-45.92a34.46,34.46,0,0,1-1.4-5.25A51,51,0,0,1,2202.92,303.75Z"/><path class="cls-1" d="M2710.85,187.89c-30.64,16.07-34.58,44.34-30.12,71.81,4.57,28.1,25.53,46.1,54.72,47.33,21.57.91,43.58-4.34,58.47-43.07l71.65,15.46c-7.39,34.38-26.41,59.57-56.08,77.15-53.38,31.63-130.78,22.63-173-24.25-21.62-24-32.22-52-33-84.52-1-42.11,15-75.88,46.3-103.29,13-11.42,13.43-11.69,24.52.85C2686.83,159.53,2699,174.05,2710.85,187.89Z"/><path class="cls-1" d="M2556.15,367.35H2479V121.15h77.19Z"/><path class="cls-1" d="M2939.45,282.89c26.51,0,45,18.18,45,44.22,0,25.49-18,42.88-44.33,42.91-26.47,0-45.39-18.23-45.31-43.72C2894.85,301.63,2914.12,282.91,2939.45,282.89Z"/><path d="M1408.89,4.81c-8.76,23.66-17,46.39-25.58,69q-69.27,183-138.51,366.05c-2.86,7.58-6.13,10.94-14.88,10.71-25.72-.69-51.47-.24-79.31-.24l142.94-330.12c-28.17,0-54.45-.28-80.7.4-2.79.07-6.43,5.28-8,8.84-19,43.07-37.74,86.27-56.56,129.43-.56,1.27-1.42,2.4-3.1,5.19-9.77-23.64-19-45.83-28.12-68.06s-18.25-44.21-26.91-66.49c-2.6-6.68-5.71-9.78-13.59-9.58-24.22.62-48.46.23-74.7.23,2.55,6.38,4.53,11.65,6.76,16.82,30.56,71,61.32,141.91,91.43,213.09,2.37,5.6,2.28,13.83,0,19.51-10,24.93-21.06,49.45-32.27,73.87-1.41,3.05-5.93,4.89-9.31,6.73-1.44.79-3.66.14-5.53.14q-347,0-694.05.21c-8.82,0-14.26-3-19.72-9.39Q222.15,303.65,45.74,263a339.55,339.55,0,0,0-35.88-6.54c-8.28-1-7.93-5.84-7.92-11.69q.12-66.93,0-133.84V4.71h369.2c-23.81,15.38-32.38,34.23-26.06,56,4.76,16.45,22.06,29.67,39.8,30.42,22.12,1,40.55-9.55,46.74-28.35,6.07-18.42,5.23-37-24.24-58ZM673,139.39c-3.69-2.09-5.72-3-7.45-4.26-51-37.95-129-25.13-165.84,27.05-23.27,32.94-29.07,69.15-23.25,108.45,11.45,77.4,88.3,124.05,162.13,97.3,11.84-4.3,22.74-11.18,34.56-17.11.31,5.42.62,10.78.94,16.22h77V120.81h-77C673.71,126.82,673.4,132.21,673,139.39ZM285.58,335V13.64H207.87V139c-82.48-60.26-184.3-7.17-195.64,79,12.26,2.33,24.62,4.43,36.86,7.09s24.24,5.85,37.27,9c3.93-19.34,12.41-35.76,29.8-46s35.92-10.61,54.36-3c30.06,12.36,50,52.4,29.19,93.73ZM810.8,367.13h77.83c0-5-.1-9.39,0-13.78.72-28.88.6-57.82,2.45-86.63,2.23-34.91,25.1-59.89,59.49-66.14,12.54-2.28,25.46-2.45,38.59-3.61,1-24.19,2.21-47.87,2.7-71.57,0-2.44-4-6.94-6.42-7.15-36.3-3.19-66.16,8.78-88.08,38.55-2.21,3-4.68,5.82-9.13,11.31v-47H810.8Zm-461-246.62V366.94h76.84V120.51Z"/><path d="M149.17,336.89c-4.58,6.45-11.51,11.86-11.9,17.7-.71,10.67,7.26,15.21,18.24,12.83,4.3-.93,8.46-2.47,12.71-3.65,22-6.13,31.68-3.27,49,14.79-3.05,1.05-5.81,2-8.55,2.94-8.62,3.08-9.18,9.69-7.28,17.12s7,10.13,14.26,9.21c3.27-.41,6.75-.94,9.63-2.41,16.2-8.29,28.61-2.38,40.13,9.47,10.87,11.19,22.37,21.77,35.54,34.48H256c-.92-2.74-2.31-6-3.13-9.48-2.14-9-8-10.68-16-8.63-20,5.12-39.91,10.51-60,15.23a123.27,123.27,0,0,1-26.14,3.67c-31.32.43-62.65.17-94.43-1.46,5.51-1.67,11-3.42,16.54-5,9.06-2.59,11.39-8.34,8.63-17-2.81-8.82-8.52-11.37-17.19-9C44,423.1,23.73,428.4,2.61,434v-74.2c10.58-2.6,20.93-5.06,31.23-7.71,11.46-2.95,15.29-8.52,12.39-18.11-3-9.88-9.56-12-19-8.66-5.53,2-11.36,3.13-17.08,4.52-2.49.6-5,.85-7.9,1.32V289.66l78.35,17.77c-10.51,5.35-19.71,8.47-16,20.2,2.62,8.21,7.15,12.63,16.47,10,7.79-2.21,16.11-3,23.51-6.07C121.81,324.42,137,327.42,149.17,336.89Zm20,56.08c-19.21,5.07-43.5,10.9-67.27,18.4-3.18,1-6,11-4.75,15.74,1.09,4.06,9,9.87,12.64,9.1,23.3-5,46.4-11.07,69.2-18,3.74-1.14,8.11-8.31,7.89-12.47C186.53,399.29,184.22,391.35,169.17,393ZM30,401c.93-.5,1.87-1,2.81-1.48,6-1.6,12-3.21,18-4.79,17-4.46,34.1-8.74,51.05-13.45,7.27-2,11.34-6.42,8.89-14.86-2.2-7.55-6-13.57-14.58-11.55-22.82,5.42-45.52,11.41-68.08,17.8-6.86,1.94-10.29,8.25-7.87,14.94C22.07,392.62,26.66,396.6,30,401Z"/><path d="M2764.5,156.43c-7.3-22.14-13.71-41.58-21.13-64.11l67.77,13.28Z"/><path class="cls-1" d="M673,139.39c.41-7.18.72-12.57,1.06-18.58h77V367h-77c-.32-5.44-.63-10.8-.94-16.22-11.82,5.93-22.72,12.81-34.56,17.11-73.83,26.75-150.68-19.9-162.13-97.3-5.82-39.3,0-75.51,23.25-108.45,36.87-52.18,114.88-65,165.84-27.05C667.27,136.42,669.3,137.3,673,139.39Zm-62,41c-30.26-1.61-60.28,22.61-59.78,64.29.48,40.48,24.74,64.29,61.18,64.21,35.63-.07,61-27.74,60.65-64.42C672.65,204,643,179.44,611,180.4Z"/><path class="cls-1" d="M285.58,335l-85.87-56.2c20.83-41.33.87-81.37-29.19-93.73-18.44-7.58-36.85-7.3-54.36,3s-25.87,26.67-29.8,46c-13-3.18-25.09-6.39-37.27-9s-24.6-4.76-36.86-7.09c11.34-86.14,113.16-139.23,195.64-79V13.64h77.71Z"/><path class="cls-1" d="M810.8,367.13v-246h77.44v47c4.45-5.49,6.92-8.31,9.13-11.31,21.92-29.77,51.78-41.74,88.08-38.55,2.43.21,6.47,4.71,6.42,7.15-.49,23.7-1.69,47.38-2.7,71.57-13.13,1.16-26,1.33-38.59,3.61-34.39,6.25-57.26,31.23-59.49,66.14-1.85,28.81-1.73,57.75-2.45,86.63-.11,4.39,0,8.78,0,13.78Z"/><path class="cls-1" d="M349.83,120.51h76.84V366.94H349.83Z"/><path class="cls-1" d="M169.17,393c15.05-1.62,17.36,6.32,17.71,12.77.22,4.16-4.15,11.33-7.89,12.47-22.8,6.93-45.9,13-69.2,18-3.65.77-11.55-5-12.64-9.1-1.27-4.71,1.57-14.73,4.75-15.74C125.67,403.87,150,398,169.17,393Z"/><path class="cls-1" d="M30,401c-3.35-4.43-7.94-8.41-9.74-13.39-2.42-6.69,1-13,7.87-14.94,22.56-6.39,45.26-12.38,68.08-17.8,8.53-2,12.38,4,14.58,11.55,2.45,8.44-1.62,12.84-8.89,14.86-17,4.71-34,9-51,13.45-6,1.58-12,3.19-18,4.79C31.88,400,30.94,400.53,30,401Z"/><path d="M611,180.4c32-1,61.67,23.56,62,64.08.34,36.68-25,64.35-60.65,64.42-36.44.08-60.7-23.73-61.18-64.21C550.7,203,580.72,178.79,611,180.4Z"/></svg>