<?xml version="1.0" encoding="utf-8"?>
<!-- Generator: Adobe Illustrator 26.0.0, SVG Export Plug-In . SVG Version: 6.00 Build 0)  -->
<svg version="1.1" id="图层_1" xmlns="http://www.w3.org/2000/svg" xmlns:xlink="http://www.w3.org/1999/xlink" x="0px" y="0px"
	 viewBox="0 0 3840 1080" style="enable-background:new 0 0 3840 1080;" xml:space="preserve">
<style type="text/css">
	.st0{fill:#FFFFFF;}
	.st1{font-family:'Bauhaus93';}
	.st2{font-size:315px;}
	.st3{letter-spacing:63;}
</style>
<path class="st0" d="M480.5,575.1c0-68.5,0.1-137.1-0.1-205.6c0-13.8,4.9-24.5,16.9-31.2c22.8-12.7,49.7,3.6,49.7,30.1
	c0,131.6,0,263.2,0,394.7c0,6.9,0.1,13.7,0,20.6c-0.2,17-12.9,30.8-30,33c-16.4,1.8-31.6-8.8-35.6-24.8c-1-3.8-0.9-8-0.9-12
	C480.5,711.6,480.5,643.4,480.5,575.1z"/>
<path class="st0" d="M271.5,575.4c0-69.3,0.2-138.5-0.1-207.8c-0.1-14.4,9.9-28.9,25.1-32.1c24.5-5.2,40.6,13.9,40.5,30.8
	c-0.1,139.4-0.2,278.9-0.1,418.3c0,16.7-12.4,30.1-29.4,32c-16.3,1.8-32.2-9.4-35.5-25.4c-0.7-3.3-0.5-6.8-0.5-10.2
	C271.5,712.4,271.5,643.9,271.5,575.4z"/>
<path class="st0" d="M754.6,575.6c0,69.4,0,138.9,0,208.3c0,14.3-7.6,25.6-20.5,30.6c-12.6,5-26.9,1.7-36.1-8.2
	c-5.3-5.6-8.3-12.9-8.7-20.5c-0.1-1.3,0-2.7,0-4V369.1c0-16.2,8.4-29,22.8-33.1c23.9-6.9,42.6,11.4,42.5,30.4
	C754.4,436.1,754.6,505.8,754.6,575.6z"/>
<path class="st0" d="M376,636.2c0-49.3,0.2-98.6-0.1-147.9c-0.1-16.4,12.3-29.2,24.8-32c23.9-5.4,41.7,12.4,41.7,31.7
	c0,98.6,0,197.2,0,295.9c0,16.8-12.9,30.8-30,32.9c-16,1.9-32.1-9.5-35.7-25.4c-0.8-3.3-0.6-6.8-0.6-10.2
	C376,732.7,376,684.5,376,636.2z"/>
<path class="st0" d="M650.8,696c0,29.3,0,58.7,0,88c0,16.6-12.3,30.4-29.1,32.7c-15.7,2.2-31.5-8.4-35.6-24.1
	c-0.8-3.5-1.2-7-1.1-10.6c-0.1-57.5-0.1-115,0-172.4c0-24.1,20.7-39.3,43.5-32.3c12.9,4,22.3,16.8,22.3,30.8
	C650.8,637.3,650.8,666.7,650.8,696z"/>
<text transform="matrix(1 0 0 1 1108.38 671.27)" class="st0 st1 st2 st3">DIARY MUSIC</text>
</svg>
