<?xml version="1.0" encoding="utf-8"?>
<!-- Generator: Adobe Illustrator 26.0.0, SVG Export Plug-In . SVG Version: 6.00 Build 0)  -->
<svg version="1.1" id="图层_1" xmlns="http://www.w3.org/2000/svg" xmlns:xlink="http://www.w3.org/1999/xlink" x="0px" y="0px"
	 viewBox="0 0 3000 3000" style="enable-background:new 0 0 3000 3000;" xml:space="preserve">
<style type="text/css">
	.st0{fill:#FFFFFF;}
</style>
<g>
	<path class="st0" d="M1399.1,1498.9c0-212.7,0.3-425.7-0.3-638.4c0-42.8,15.2-76.1,52.5-96.9c70.8-39.4,154.3,11.2,154.3,93.5
		c0,408.6,0,817.2,0,1225.5c0,21.4,0.3,42.5,0,64c-0.6,52.8-40,95.6-93.1,102.5c-50.9,5.6-98.1-27.3-110.5-77
		c-3.1-11.8-2.8-24.8-2.8-37.3C1399.1,1922.7,1399.1,1711,1399.1,1498.9z"/>
	<path class="st0" d="M750.3,1499.8c0-215.2,0.6-430-0.3-645.2c-0.3-44.7,30.7-89.7,77.9-99.7c76.1-16.1,126,43.2,125.7,95.6
		c-0.3,432.8-0.6,866-0.3,1298.8c0,51.9-38.5,93.5-91.3,99.4c-50.6,5.6-100-29.2-110.2-78.9c-2.2-10.2-1.6-21.1-1.6-31.7
		C750.3,1925.2,750.3,1712.5,750.3,1499.8z"/>
	<path class="st0" d="M2250,1500.4c0,215.5,0,431.3,0,646.8c0,44.4-23.6,79.5-63.6,95c-39.1,15.5-83.5,5.3-112.1-25.5
		c-16.5-17.4-25.8-40.1-27-63.7c-0.3-4,0-8.4,0-12.4V859.3c0-50.3,26.1-90,70.8-102.8c74.2-21.4,132.2,35.4,131.9,94.4
		C2249.4,1067.3,2250,1283.7,2250,1500.4z"/>
	<path class="st0" d="M1074.7,1688.6c0-153.1,0.6-306.1-0.3-459.2c-0.3-50.9,38.2-90.7,77-99.4c74.2-16.8,129.4,38.5,129.4,98.4
		c0,306.1,0,612.3,0,918.8c0,52.2-40,95.6-93.1,102.2c-49.7,5.9-99.6-29.5-110.8-78.9c-2.5-10.2-1.9-21.1-1.9-31.7
		C1074.7,1988.2,1074.7,1838.6,1074.7,1688.6z"/>
	<path class="st0" d="M1927.8,1874.3c0,91,0,182.3,0,273.2c0,51.5-38.2,94.4-90.3,101.5c-48.7,6.8-97.8-26.1-110.5-74.8
		c-2.5-10.9-3.7-21.7-3.4-32.9c-0.3-178.5-0.3-357.1,0-535.3c0-74.8,64.3-122,135-100.3c40,12.4,69.2,52.2,69.2,95.6
		C1927.8,1692,1927.8,1783.3,1927.8,1874.3z"/>
</g>
</svg>
