<svg id="图层_1" data-name="图层 1" xmlns="http://www.w3.org/2000/svg" viewBox="0 0 3840 1080"><path d="M480.51,539.72c0-68.54.1-137.09-.09-205.64,0-13.77,4.9-24.48,16.92-31.19C520.15,290.14,547,306.47,547,333q0,197.37,0,394.74c0,6.86.07,13.71,0,20.57-.2,17-12.87,30.85-30,32.94a32.92,32.92,0,0,1-35.61-24.76c-1-3.83-.88-8-.88-12Q480.48,642.1,480.51,539.72Z"/><path d="M271.51,540c0-69.27.17-138.54-.14-207.81-.07-14.43,9.92-28.91,25.12-32.15C321,294.8,337.05,313.86,337,330.84Q336.85,540,337,749.14c0,16.68-12.44,30.14-29.4,32.05C291.3,783,275.37,771.75,272,755.78c-.69-3.3-.48-6.82-.48-10.24Q271.49,642.76,271.51,540Z"/><path d="M754.59,540.16q0,104.15,0,208.31c0,14.28-7.62,25.57-20.45,30.59a32.75,32.75,0,0,1-36.07-8.22,31.9,31.9,0,0,1-8.66-20.55c-.07-1.33,0-2.68,0-4V333.67c0-16.18,8.4-28.95,22.84-33.09,23.94-6.87,42.57,11.42,42.5,30.37C754.41,400.69,754.58,470.42,754.59,540.16Z"/><path d="M376.05,600.78c0-49.31.21-98.62-.11-147.93-.11-16.42,12.26-29.18,24.82-32,23.85-5.36,41.67,12.43,41.67,31.68q0,147.91,0,295.85c0,16.8-12.93,30.85-30,32.85-16,1.88-32.07-9.47-35.7-25.43-.75-3.28-.63-6.8-.63-10.21Q376,673.18,376.05,600.78Z"/><path d="M650.76,660.6q0,44,0,88c0,16.61-12.31,30.35-29.06,32.65-15.68,2.15-31.51-8.44-35.62-24.09A42.39,42.39,0,0,1,585,746.55q-.11-86.22,0-172.44c0-24.09,20.74-39.35,43.51-32.34,12.93,4,22.28,16.76,22.31,30.82C650.81,601.93,650.76,631.26,650.76,660.6Z"/><path d="M1166,282.56a32.57,32.57,0,0,1,32.4,32.4v424.8a32.57,32.57,0,0,1-32.4,32.4h-46.8V282.56Zm-18,460.8h18q3.6,0,3.6-3.6V315c0-2.39-1.2-3.6-3.6-3.6h-18Z"/><path d="M1360.73,282.56h28.8v489.6h-28.8Z"/><path d="M1598.69,282.56a32.57,32.57,0,0,1,32.4,32.4v457.2h-28.8V455.36h-21.6v316.8h-28.8V315a32.57,32.57,0,0,1,32.4-32.4Zm-18,32.4v111.6h21.6V315c0-2.39-1.2-3.6-3.6-3.6h-14.4C1581.89,311.36,1580.69,312.57,1580.69,315Z"/><path d="M1822.25,282.56h21.6a32.57,32.57,0,0,1,32.4,32.4V423a32.31,32.31,0,0,1-5.4,18,32.33,32.33,0,0,1,5.4,18v313.2h-28.8V459c0-2.39-1.21-3.6-3.6-3.6h-21.6v316.8h-28.8V282.56Zm0,144h21.6c2.39,0,3.6-1.2,3.6-3.6V315c0-2.39-1.21-3.6-3.6-3.6h-21.6Z"/><path d="M2067.41,282.56v133.2a10.8,10.8,0,0,0,21.6,0V282.56h28.8v457.2a32.57,32.57,0,0,1-32.4,32.4H2071a32.57,32.57,0,0,1-32.4-32.4V491.36h28.8v248.4c0,2.4,1.19,3.6,3.6,3.6h14.4c2.39,0,3.6-1.2,3.6-3.6V453.92a41.76,41.76,0,0,1-10.8,1.44,39.33,39.33,0,0,1-39.6-39.6V282.56Z"/><path d="M2566.72,282.56a38.24,38.24,0,0,1,25.2,9,38.22,38.22,0,0,1,25.2-9h39.6v489.6h-28.8V311.36h-10.8a11.07,11.07,0,0,0-10.8,10.8v450h-28.8v-450a11.07,11.07,0,0,0-10.8-10.8h-10.8v460.8h-28.8V282.56Z"/><path d="M2847.87,282.56v457.2q0,3.6,3.6,3.6h14.4q3.6,0,3.6-3.6V282.56h28.8v457.2a32.57,32.57,0,0,1-32.4,32.4h-14.4a32.57,32.57,0,0,1-32.4-32.4V282.56Z"/><path d="M3107.43,282.56a32.57,32.57,0,0,1,32.4,32.4v54H3111V315c0-2.39-1.21-3.6-3.6-3.6H3093c-2.4,0-3.6,1.21-3.6,3.6v100.8a11.07,11.07,0,0,0,10.8,10.8,39.33,39.33,0,0,1,39.6,39.6v273.6a32.57,32.57,0,0,1-32.4,32.4H3093a32.57,32.57,0,0,1-32.4-32.4V491.36h28.8v248.4q0,3.6,3.6,3.6h14.4c2.39,0,3.6-1.2,3.6-3.6V466.16a11.07,11.07,0,0,0-10.8-10.8,39.33,39.33,0,0,1-39.6-39.6V315a32.57,32.57,0,0,1,32.4-32.4Z"/><path d="M3302.18,282.56H3331v489.6h-28.8Z"/><path d="M3540.14,282.56a32.57,32.57,0,0,1,32.4,32.4v54h-28.8V315c0-2.39-1.2-3.6-3.6-3.6h-14.4c-2.4,0-3.6,1.21-3.6,3.6v424.8q0,3.6,3.6,3.6h14.4q3.6,0,3.6-3.6V426.56h28.8v313.2a32.57,32.57,0,0,1-32.4,32.4h-14.4a32.57,32.57,0,0,1-32.4-32.4V315a32.57,32.57,0,0,1,32.4-32.4Z"/></svg>